# xmcd
#
# Track frame offsets:
#	150
#	12224
#	24225
#	38291
#	49870
#	62335
#	82472
#	95274
#	106865
#	117123
#	128722
#	139481
#	151977
#	168283
#	180749
#
# Disc length: 2587 seconds
#
# Revision: 1
# Processed by: cddbd v1.5.2PL0 Copyright (c) Steve Scherf et al.
# Submitted via: audiograbber 1.83.01
#
DISCID=b40a190f
DTITLE=Various Artist - CBS80044
DYEAR=1962
DGENRE=Country
TTITLE0=Gene Chandler - Duke Of Earl
TTITLE1=Bruce Channel - Hey Baby
TTITLE2=Connie Francis - Don't Break The Heart That Loves You
TTITLE3=Shelley Fabares - Johnny Angel
TTITLE4=Elvis Presley - Good Luck Charm
TTITLE5=Ray Charles - I Can't Stop Loving You
TTITLE6=Bobby Vinton - Roses Are Red My Love
TTITLE7=Neil Sedaka - Breaking Up Is Hard To Do
TTITLE8=Joey Dee and The Starlighters - Peppermint Twist
TTITLE9=Little Eva - The Locomotion
TTITLE10=Tommy Roe - Sheila
TTITLE11=The Four Seasons - Sherry
TTITLE12=Bobby Pickett  "Boris" and The Cryptkickers 5 - Monster Mash
TTITLE13=The Four Seasons - Big Girls Don't Cry
TTITLE14=Roy Orbison - Dream Baby (How Long Must I Dream)
EXTD=
EXTT0=
EXTT1=
EXTT2=
EXTT3=
EXTT4=
EXTT5=
EXTT6=
EXTT7=
EXTT8=
EXTT9=
EXTT10=
EXTT11=
EXTT12=
EXTT13=
EXTT14=
PLAYORDER=
